<svg xmlns="http://www.w3.org/2000/svg" viewBox="0 0 800 600">
            <defs>
                <pattern id="grid" width="40" height="40" patternUnits="userSpaceOnUse">
                    <path d="M 40 0 L 0 0 0 40" fill="none" stroke="#8080ff" stroke-width="0.5"/>
                </pattern>
            </defs>
            <rect width="100%" height="100%" fill="url(#grid)" />
            <g fill="none" stroke="#4040ff">
                <!-- Nodos -->
                <circle cx="150" cy="150" r="20" stroke-width="2"/>
                <circle cx="400" cy="100" r="20" stroke-width="2"/>
                <circle cx="650" cy="150" r="20" stroke-width="2"/>
                <circle cx="150" cy="300" r="20" stroke-width="2"/>
                <circle cx="400" cy="300" r="20" stroke-width="2"/>
                <circle cx="650" cy="300" r="20" stroke-width="2"/>
                <circle cx="150" cy="450" r="20" stroke-width="2"/>
                <circle cx="400" cy="500" r="20" stroke-width="2"/>
                <circle cx="650" cy="450" r="20" stroke-width="2"/>
                
                <!-- Conexiones -->
                <path d="M 150 150 L 400 100 L 650 150" stroke-width="1"/>
                <path d="M 150 300 L 400 300 L 650 300" stroke-width="1"/>
                <path d="M 150 450 L 400 500 L 650 450" stroke-width="1"/>
                <path d="M 150 150 L 400 300 L 650 450" stroke-width="1"/>
                <path d="M 150 450 L 400 300 L 650 150" stroke-width="1"/>
                <path d="M 150 150 L 400 500" stroke-width="1"/>
                <path d="M 150 450 L 400 100" stroke-width="1"/>
                <path d="M 400 100 L 650 300" stroke-width="1"/>
                <path d="M 400 500 L 650 300" stroke-width="1"/>
            </g>
            </svg>